Title                            : Star Trek
Year                             : 2009
Genre                            : Action | Adventure | Sci-Fi
iMDB URL                         : http://www.imdb.com/title/tt0796366/
Awards                           : 1 win & 8 nominations

Complete name                    : Star.Trek.2009.DVDRIP.H264-ZEKTORM.mp4
Format                           : MPEG-4
Format profile                   : Base Media
Codec ID                         : isom
File size                        : 701 MiB
Duration                         : 2h 4mn
Overall bit rate                 : 788 Kbps

Video
Format                           : AVC
Format/Info                      : Advanced Video Codec
Format profile                   : High@L4.1
Format settings, CABAC           : Yes
Format settings, ReFrames        : 10 frames
Codec ID                         : avc1
Codec ID/Info                    : Advanced Video Coding
Duration                         : 2h 4mn
Bit rate mode                    : Variable
Bit rate                         : 709 Kbps
Maximum bit rate                 : 4421 Kbps
Width                            : 800 pixels
Height                           : 320 pixels
Display aspect ratio             : 2.500
Frame rate mode                  : Constant
Frame rate                       : 23.976 fps
Resolution                       : 24 bits
Colorimetry                      : 4:2:0
Scan type                        : Progressive
Bits/(Pixel*Frame)               : 0.116
Stream size                      : 630 MiB (90%)
Title                            : Video
Writing library                  : x264

Audio
Format                           : AAC
Format/Info                      : Advanced Audio Codec
Format version                   : Version 4
Format profile                   : LC
Format settings, SBR             : Yes
Format settings, PS              : No
Codec ID                         : 40
Duration                         : 2h 4mn
Bit rate mode                    : Variable
Bit rate                         : 76.6 Kbps
Maximum bit rate                 : 102 Kbps
Channel(s)                       : 2 channels
Channel positions                : L R
Sampling rate                    : 48.0 KHz
Resolution                       : 16 bits
Stream size                      : 68.0 MiB (10%)
Title                            : English
Language                         : English
